<svg width="461" height="500" viewBox="0 0 461 500" fill="none" xmlns="http://www.w3.org/2000/svg">
<g clip-path="url(#clip0_1575_23040)">
<path d="M105.675 176.593C104.635 178.462 104.09 180.563 104.091 182.7V314.646C104.091 316.784 104.64 318.886 105.686 320.753L231.121 248.651L105.675 176.593Z" fill="#E54F35"/>
<path d="M231.121 248.662V104.097C229.037 104.156 227.001 104.728 225.194 105.762L110.404 171.763C108.42 172.908 106.785 174.568 105.675 176.565L231.121 248.662Z" fill="#F4A300"/>
<path d="M354.638 173.184L235.532 104.729C234.111 104.263 232.618 104.049 231.121 104.096V248.662L357.148 176.215C356.479 175.078 355.631 174.055 354.638 173.184V173.184Z" fill="#E96092"/>
<path d="M357.142 321.114C357.766 320.077 358.236 318.955 358.536 317.783V179.541C358.244 178.37 357.782 177.248 357.164 176.21L231.138 248.662L357.142 321.114Z" fill="#832081"/>
<path d="M231.121 248.679V393.222C232.692 393.274 234.258 393.031 235.739 392.506L354.516 324.218C355.567 323.328 356.464 322.272 357.17 321.092L231.121 248.679Z" fill="#63B6E6"/>
<path d="M231.121 248.679L105.686 320.781C106.795 322.772 108.425 324.426 110.404 325.567L225.194 391.551C227 392.587 229.037 393.16 231.121 393.216V248.679Z" fill="#FFDB14"/>
</g>
<defs>
<clipPath id="clip0_1575_23040">
<rect width="254.445" height="289.142" fill="white" transform="translate(104.091 104.091)"/>
</clipPath>
</defs>
</svg>
