<svg viewBox="0 0 78 89" width="78" height="89" fill="none" xmlns="http://www.w3.org/2000/svg">
<g clip-path="url(#clip0_0_28)">
<path d="M0.485504 22.3166C0.166771 22.8919 -0.000302059 23.5388 1.85967e-05 24.1964V64.8104C-8.63968e-05 65.4684 0.168224 66.1155 0.488926 66.6902L38.941 44.4966L0.485504 22.3166Z" fill="#E54F35"/>
<path d="M38.9411 44.5V0.00169755C38.3023 0.0199256 37.678 0.196063 37.1239 0.51437L1.9351 20.8299C1.32694 21.1823 0.825916 21.6932 0.485502 22.3081L38.9411 44.5Z" fill="#F4A321"/>
<path d="M76.8051 21.2674L40.2932 0.196561C39.8574 0.0529629 39.3997 -0.0129778 38.941 0.00174519V44.5L77.5744 22.2005C77.3692 21.8505 77.1096 21.5355 76.8051 21.2674V21.2674Z" fill="#E96092"/>
<path d="M77.5726 66.8013C77.764 66.482 77.908 66.1366 78 65.7759V23.2241C77.9103 22.8637 77.7687 22.5183 77.5795 22.1987L38.9461 44.5L77.5726 66.8013Z" fill="#831F82"/>
<path d="M38.941 44.5051V88.9966C39.4225 89.0125 39.9027 88.9377 40.3565 88.7761L76.7675 67.7565C77.0899 67.4828 77.3648 67.1577 77.5812 66.7944L38.941 44.5051Z" fill="#63B6E6"/>
<path d="M38.941 44.5051L0.48892 66.6987C0.828724 67.3115 1.32855 67.8207 1.9351 68.1718L37.1239 88.4822C37.6776 88.8013 38.3021 88.9774 38.941 88.9948V44.5051Z" fill="#FFDB14"/>
</g>
<defs>
<clipPath id="clip0_0_28">
<rect width="78" height="89" fill="white"/>
</clipPath>
</defs>
</svg>
