<svg viewBox="0 0 248 45" width="248" height="45" fill="none" xmlns="http://www.w3.org/2000/svg">
<g>
<path d="M218.007 2.23296H224.949C225.083 2.23296 225.217 2.24504 225.414 2.2554V24.9342C225.718 24.6424 225.896 24.4922 226.049 24.323C229.759 20.397 233.464 16.4682 237.164 12.5365C237.319 12.3578 237.512 12.2174 237.729 12.126C237.946 12.0347 238.18 11.995 238.415 12.0099C241.234 12.0323 244.052 12.0099 246.871 12.0099H247.729L234.676 25.5281L248 43.9822H239.362C239.163 43.9979 238.962 43.9578 238.784 43.8665C238.605 43.7751 238.455 43.6359 238.35 43.4643C235.529 39.49 232.698 35.5237 229.856 31.5655C229.712 31.3635 229.558 31.1702 229.374 30.9198C228.093 32.2716 227.027 33.3697 225.805 34.7008C225.685 34.8191 225.592 34.9625 225.533 35.1208C225.473 35.2792 225.449 35.4488 225.462 35.6175V43.9252H218L218.007 2.23296Z" fill="black"/>
<path d="M215.126 21.528L208.377 24.0055C208.197 23.5203 208.045 23.0646 207.863 22.6243C207.247 21.173 206.196 19.9515 204.856 19.1304C203.517 18.3092 201.956 17.9294 200.392 18.044C198.192 18.1238 196.102 19.0325 194.537 20.5898C192.972 22.1471 192.045 24.2395 191.941 26.4519C191.691 29.4542 192.284 32.6084 194.186 35.0255C195.02 36.0454 196.087 36.8466 197.297 37.3605C198.506 37.8744 199.821 38.0856 201.13 37.976C202.807 37.9733 204.439 37.4305 205.787 36.4271C207.136 35.4236 208.129 34.0122 208.623 32.3995C208.668 32.3054 208.72 32.2148 208.779 32.1285L215.34 34.5214C215.306 34.7018 215.261 34.88 215.205 35.0548C213.407 40.4828 208.685 44.1067 202.916 44.8301C198.238 45.4188 193.806 44.2655 190.315 41.3046C186.066 37.7654 184.033 32.3857 184.309 26.8179C184.426 23.1479 185.76 19.6229 188.099 16.8044C191.209 13.0062 195.795 10.9949 200.797 11.0432C203.628 11.0259 206.253 11.8011 208.861 13.1892C210.402 14.0926 211.749 15.295 212.825 16.7264C213.9 18.1579 214.682 19.79 215.126 21.528V21.528Z" fill="black"/>
<path d="M161.214 23.023L154.328 21.4588C154.56 19.2809 155.459 17.2295 156.902 15.5889C158.049 14.2602 159.452 13.1789 161.026 12.4098C162.6 11.6408 164.312 11.2 166.059 11.1139C169.006 10.768 171.992 11.1839 174.735 12.3224C176.5 13.0637 178.029 14.279 179.154 15.8355C180.28 17.392 180.958 19.2298 181.116 21.1481C181.207 21.9256 181.25 22.708 181.243 23.4909L181.26 39.1102C181.26 40.7158 181.421 42.318 181.5 43.9598H174.503C174.393 42.7133 174.288 41.4668 174.172 40.1461C174.053 40.2842 173.957 40.3878 173.866 40.4914C172.968 41.7086 171.829 42.7254 170.522 43.4778C169.214 44.2301 167.765 44.7017 166.267 44.8628C163.662 45.2204 161.012 44.7693 158.669 43.5696C157.349 42.8898 156.212 41.9 155.353 40.684C154.494 39.468 153.939 38.0616 153.735 36.5841C153.531 35.1065 153.684 33.6012 154.181 32.1957C154.678 30.7901 155.504 29.5258 156.589 28.5097C158.176 27.0887 160.147 26.1746 162.252 25.8838C165.145 25.3779 171.243 24.437 171.409 24.418C173.674 24.1556 174.089 22.6674 173.624 20.8546C173.043 18.7604 171.382 17.2463 168.916 17.229C168.066 17.2103 167.215 17.2617 166.373 17.3827C165.095 17.5641 163.91 18.1591 162.997 19.0779C162.084 19.9966 161.493 21.1893 161.313 22.4757C161.296 22.6607 161.263 22.8439 161.214 23.023V23.023ZM173.256 29.347C171.015 29.682 168.775 30.0376 166.533 30.357C165.194 30.5935 164.149 30.8387 163.084 31.4292C162.452 31.793 161.942 32.3374 161.618 32.9933C161.295 33.6492 161.172 34.3871 161.265 35.1134C161.29 35.8088 161.5 36.4847 161.873 37.0703C162.247 37.6559 162.77 38.1297 163.388 38.442C166.152 39.7214 170.028 38.9065 172.152 36.3703C173.321 34.8924 174.156 31.7503 173.829 29.2918C173.829 29.2918 173.432 29.3419 173.256 29.3539V29.347Z" fill="black"/>
<path d="M140.961 43.9512H133.43V12.0566H140.721V16.7888C141.796 14.8429 143.495 13.3214 145.541 12.4727C147.58 11.6384 149.813 11.4043 151.979 11.7976V19.5114C151.591 19.4873 151.234 19.4389 150.876 19.4476C149.642 19.4112 148.408 19.458 147.181 19.5874C145.691 19.7726 144.303 20.448 143.234 21.5086C142.165 22.5692 141.474 23.9556 141.268 25.4522C141.106 26.5384 141.015 27.6342 140.996 28.7325C140.96 33.5217 140.98 38.3126 140.98 43.1018L140.961 43.9512Z" fill="black"/>
<path d="M115.843 2.24686L122.684 4.56204V12.0014H129.275V18.7656H122.717V33.5303C122.717 33.8273 122.744 34.4263 122.744 34.4263C122.837 36.0906 124.002 37.3613 125.673 37.5236C127.09 37.6496 127.991 37.5685 129.36 37.3976V42.3094C129.36 43.7406 129.36 43.7907 127.969 44.0721C125.723 44.5853 123.384 44.5188 121.171 43.8787C119.585 43.4396 118.172 42.5222 117.121 41.2501C116.07 39.978 115.432 38.4123 115.292 36.764C115.221 36.0549 115.188 35.3427 115.191 34.6301C115.179 29.632 115.191 18.7812 115.191 18.7812L109.331 18.757L109.309 12.0014C109.309 12.0014 110.755 12.0152 111.464 12.0014C114.381 12.0014 115.867 10.577 115.867 7.51256C115.86 7.38998 115.843 2.24686 115.843 2.24686Z" fill="black"/>
<path d="M86.3541 2.24686L93.1883 4.56204V12.0014H99.7789V18.7656H93.2192V33.5303C93.2192 33.8273 93.2484 34.4263 93.2484 34.4263C93.3393 36.0906 94.5044 37.3613 96.1756 37.5236C97.5929 37.6496 98.4955 37.5685 99.863 37.3976V42.3094C99.863 43.7406 99.863 43.7907 98.4732 44.0721C96.2271 44.5853 93.8886 44.5188 91.6749 43.8787C90.0884 43.4399 88.6737 42.522 87.6219 41.2488C86.5701 39.9756 85.9318 38.4085 85.793 36.7588C85.7224 36.0497 85.6886 35.3375 85.6917 34.6249C85.6797 29.6268 85.6917 18.776 85.6917 18.776L79.8338 18.7518L79.8098 11.9962C79.8098 11.9962 81.2579 12.01 81.9666 11.9962C84.8733 11.9962 86.3678 10.5718 86.3678 7.50738C86.3695 7.38998 86.3541 2.24686 86.3541 2.24686Z" fill="black"/>
<path d="M77.6993 19.9587L71.3798 21.7749C71.2734 21.4538 71.1722 21.1775 71.0932 20.8961C70.811 20.0802 70.3538 19.3367 69.754 18.7185C69.1543 18.1003 68.4266 17.6225 67.6227 17.3189C66.8188 17.0154 65.9583 16.8937 65.1024 16.9623C64.2465 17.0309 63.4161 17.2882 62.6701 17.716C62.0709 18.0216 61.5791 18.5043 61.2604 19.0993C60.9417 19.6942 60.8115 20.373 60.8873 21.0446C60.9516 21.6956 61.2184 22.3095 61.6497 22.799C62.081 23.2885 62.6549 23.6285 63.2895 23.7707C65.0774 24.2075 66.6766 24.5286 68.4491 24.9119C70.1628 25.242 71.8168 25.8316 73.3547 26.6608C74.7026 27.4277 75.8391 28.5205 76.6617 29.8404C77.4842 31.1604 77.9668 32.6658 78.0658 34.2206C78.1647 35.7753 77.8769 37.3304 77.2285 38.7452C76.58 40.1599 75.5912 41.3897 74.3516 42.3233C72.4385 43.8581 70.1787 44.6385 67.6598 44.9026C64.0856 45.2686 60.8736 44.6057 57.948 42.8688C56.6029 42.0696 55.4521 40.9783 54.5797 39.6745C53.7072 38.3708 53.1351 36.8874 52.9051 35.3328L59.4889 33.489C59.6276 34.7053 60.1153 35.8547 60.8924 36.7969C63.3169 39.7698 68.2569 39.4073 70.1015 37.2181C70.6164 36.5953 70.8644 35.7922 70.7911 34.9855C70.7177 34.1787 70.3289 33.4342 69.7103 32.9158C69.5385 32.7662 69.3502 32.637 69.1492 32.5308C67.8466 31.9803 66.4938 31.5587 65.11 31.2722C63.552 30.8924 62.0215 30.6075 60.5201 30.1206C58.8774 29.6944 57.3881 28.8092 56.2242 27.5674C55.0604 26.3255 54.2696 24.7776 53.9432 23.1026C53.6801 21.8928 53.676 20.6405 53.931 19.429C54.186 18.2175 54.6944 17.0744 55.4223 16.0758C57.5619 12.6592 61.4947 11.0069 65.6471 11.0208C68.3925 11.0069 70.865 11.6388 73.1059 13.0183C74.2492 13.7275 75.2397 14.66 76.0189 15.7607C76.798 16.8614 77.3502 18.108 77.6427 19.4269C77.6718 19.6029 77.6907 19.7805 77.6993 19.9587V19.9587Z" fill="black"/>
<path d="M29.7393 23.023L22.8535 21.4588C23.0862 19.2811 23.9856 17.2299 25.4273 15.5889C26.575 14.2602 27.9779 13.1789 29.5516 12.4098C31.1254 11.6408 32.8375 11.2 34.5849 11.1139C37.5318 10.768 40.5177 11.1839 43.2603 12.3224C45.0257 13.0637 46.5547 14.279 47.6801 15.8355C48.8055 17.392 49.4841 19.2298 49.6416 21.1481C49.7328 21.9255 49.7752 22.708 49.7686 23.4909L49.7857 39.1102C49.7857 40.7158 49.947 42.3179 50.026 43.9598H43.0235C42.9137 42.7133 42.809 41.4668 42.6924 40.146C42.574 40.2842 42.4779 40.3878 42.3869 40.4913C41.4896 41.7062 40.3521 42.7211 39.046 43.4723C37.7399 44.2234 36.2935 44.6944 34.7977 44.8558C32.1933 45.2133 29.5425 44.7621 27.1998 43.5627C25.8801 42.8829 24.7427 41.893 23.8838 40.677C23.025 39.4611 22.4701 38.0547 22.266 36.5771C22.062 35.0996 22.2148 33.5943 22.7117 32.1888C23.2085 30.7832 24.0347 29.5189 25.1202 28.5028C26.7069 27.0817 28.678 26.1676 30.7825 25.8768C33.6738 25.371 39.7737 24.4301 39.9384 24.4111C42.205 24.1487 42.6186 22.6604 42.1536 20.8477C41.5719 18.7535 39.9109 17.2394 37.4452 17.2221C36.5948 17.2034 35.7444 17.2547 34.9023 17.3758C33.6239 17.5575 32.439 18.1526 31.5262 19.0713C30.6134 19.99 30.0224 21.1825 29.8422 22.4688C29.8243 22.6562 29.7898 22.8417 29.7393 23.023V23.023ZM41.7812 29.347C39.5403 29.682 37.3028 30.0376 35.0585 30.357C33.7201 30.5935 32.6751 30.8387 31.6096 31.4291C30.9767 31.7935 30.4659 32.339 30.142 32.9963C29.8181 33.6536 29.6958 34.3929 29.7908 35.1203C29.8167 35.8147 30.0276 36.4892 30.4013 37.0736C30.7749 37.6579 31.2977 38.1305 31.915 38.442C34.6793 39.7213 38.5554 38.9065 40.6796 36.3703C41.8499 34.8924 42.6838 31.7503 42.356 29.2918C42.3543 29.2849 41.958 29.3349 41.7812 29.347Z" fill="black"/>
<path d="M20.5903 6.84271C19.3892 6.84271 18.3031 6.81336 17.2169 6.84271C14.7238 6.84271 13.2052 8.69002 13.1847 10.9258C13.1624 11.4127 13.1675 11.9738 13.1675 11.9738H20.4771V18.6224H13.1366V43.9547H5.51649V18.6517H0V11.9858H5.50962C5.50962 10.1644 5.65204 8.62269 6.232 6.8945C6.82034 5.0967 7.90672 3.50535 9.36334 2.30765C10.82 1.10995 12.5862 0.355718 14.4544 0.13368C16.395 -0.0614098 18.2293 -0.102845 20.0344 0.427178C20.2729 0.49969 20.5817 0.599825 20.5817 0.599825L20.5903 6.84271Z" fill="black"/>
</g>
</svg>
