<svg width="1000" height="363" viewBox="0 0 1000 363" fill="none" xmlns="http://www.w3.org/2000/svg">
<path d="M853.619 133.799H870.018C870.334 133.799 870.65 133.827 871.116 133.852V187.127C871.833 186.442 872.255 186.089 872.616 185.692C881.379 176.469 890.131 167.24 898.872 158.003C899.236 157.584 899.692 157.254 900.205 157.039C900.717 156.825 901.272 156.731 901.827 156.766C908.486 156.819 915.141 156.766 921.8 156.766H923.827L892.995 188.523L924.467 231.874H904.064C903.592 231.911 903.119 231.817 902.697 231.602C902.275 231.388 901.921 231.061 901.673 230.658C895.009 221.321 888.322 212.004 881.61 202.706C881.269 202.231 880.904 201.777 880.471 201.189C877.443 204.364 874.926 206.944 872.04 210.071C871.756 210.349 871.536 210.685 871.396 211.058C871.256 211.43 871.199 211.828 871.23 212.224V231.74H853.603L853.619 133.799Z" fill="black"/>
<path d="M846.814 179.126L830.873 184.946C830.448 183.806 830.087 182.735 829.657 181.701C828.202 178.292 825.719 175.422 822.556 173.493C819.392 171.564 815.705 170.672 812.01 170.941C806.814 171.129 801.877 173.263 798.18 176.922C794.482 180.58 792.294 185.495 792.048 190.693C791.457 197.746 792.859 205.155 797.35 210.833C799.32 213.229 801.842 215.112 804.699 216.319C807.556 217.526 810.662 218.022 813.753 217.765C817.714 217.758 821.57 216.483 824.755 214.126C827.94 211.769 830.287 208.453 831.453 204.665C831.56 204.444 831.683 204.231 831.822 204.028L847.321 209.649C847.24 210.073 847.133 210.492 847.001 210.902C842.753 223.654 831.599 232.167 817.972 233.866C806.923 235.249 796.454 232.54 788.206 225.584C778.17 217.27 773.367 204.632 774.02 191.553C774.297 182.931 777.448 174.65 782.973 168.029C790.318 159.107 801.152 154.382 812.966 154.495C819.654 154.455 825.855 156.276 832.016 159.537C835.656 161.659 838.838 164.483 841.378 167.846C843.919 171.209 845.766 175.043 846.814 179.126V179.126Z" fill="black"/>
<path d="M719.465 182.638L703.2 178.963C703.748 173.847 705.872 169.028 709.279 165.174C711.99 162.053 715.304 159.512 719.022 157.706C722.739 155.899 726.783 154.864 730.911 154.661C737.872 153.849 744.925 154.826 751.403 157.5C755.574 159.242 759.185 162.097 761.844 165.753C764.502 169.41 766.105 173.727 766.477 178.233C766.693 180.06 766.793 181.898 766.777 183.737L766.818 220.429C766.818 224.201 767.199 227.964 767.385 231.821H750.856C750.597 228.893 750.35 225.965 750.074 222.862C749.794 223.187 749.567 223.43 749.353 223.674C747.231 226.533 744.541 228.922 741.452 230.689C738.362 232.456 734.94 233.564 731.401 233.943C725.249 234.783 718.988 233.723 713.454 230.905C710.337 229.308 707.65 226.983 705.621 224.126C703.592 221.269 702.282 217.966 701.8 214.495C701.318 211.024 701.679 207.487 702.852 204.186C704.026 200.884 705.977 197.914 708.542 195.527C712.29 192.189 716.946 190.041 721.917 189.358C728.75 188.17 743.155 185.959 743.548 185.915C748.899 185.298 749.879 181.802 748.781 177.544C747.407 172.624 743.484 169.067 737.659 169.027C735.651 168.983 733.642 169.103 731.653 169.388C728.633 169.814 725.833 171.212 723.677 173.37C721.521 175.528 720.125 178.33 719.7 181.352C719.659 181.787 719.581 182.217 719.465 182.638V182.638ZM747.91 197.494C742.616 198.281 737.327 199.116 732.03 199.866C728.868 200.422 726.4 200.998 723.883 202.385C722.391 203.24 721.186 204.519 720.421 206.06C719.656 207.6 719.366 209.334 719.586 211.04C719.644 212.673 720.141 214.261 721.023 215.637C721.905 217.013 723.14 218.126 724.6 218.859C731.13 221.865 740.286 219.95 745.304 213.993C748.064 210.521 750.038 203.139 749.263 197.364C749.263 197.364 748.327 197.482 747.91 197.51V197.494Z" fill="black"/>
<path d="M671.626 231.801H653.837V156.876H671.059V167.993C673.598 163.422 677.612 159.847 682.444 157.854C687.26 155.894 692.534 155.344 697.651 156.268V174.389C696.735 174.332 695.892 174.218 695.045 174.239C692.132 174.153 689.217 174.263 686.319 174.567C682.799 175.002 679.521 176.589 676.995 179.08C674.469 181.572 672.837 184.829 672.352 188.344C671.967 190.896 671.752 193.47 671.707 196.05C671.622 207.301 671.671 218.555 671.671 229.806L671.626 231.801Z" fill="black"/>
<path d="M612.292 133.832L628.452 139.27V156.746H644.02V172.637H628.529V207.321C628.529 208.019 628.594 209.426 628.594 209.426C628.813 213.336 631.565 216.321 635.513 216.702C638.86 216.998 640.988 216.808 644.223 216.406V227.945C644.223 231.307 644.223 231.424 640.936 232.085C635.63 233.291 630.106 233.135 624.877 231.631C621.133 230.6 617.794 228.445 615.311 225.456C612.829 222.468 611.321 218.79 610.991 214.918C610.824 213.252 610.744 211.579 610.752 209.905C610.724 198.163 610.752 172.673 610.752 172.673L596.911 172.616L596.858 156.746C596.858 156.746 600.275 156.779 601.949 156.746C608.839 156.746 612.349 153.4 612.349 146.201C612.333 145.914 612.292 133.832 612.292 133.832Z" fill="black"/>
<path d="M542.635 133.832L558.779 139.27V156.746H574.347V172.637H558.852V207.321C558.852 208.019 558.921 209.426 558.921 209.426C559.136 213.336 561.888 216.321 565.835 216.702C569.183 216.998 571.315 216.808 574.545 216.406V227.945C574.545 231.307 574.545 231.424 571.262 232.085C565.957 233.291 560.433 233.135 555.204 231.631C551.456 230.6 548.115 228.444 545.63 225.453C543.146 222.462 541.638 218.781 541.31 214.905C541.143 213.24 541.063 211.566 541.071 209.893C541.042 198.151 541.071 172.661 541.071 172.661L527.234 172.604L527.177 156.734C527.177 156.734 530.598 156.767 532.271 156.734C539.137 156.734 542.668 153.388 542.668 146.189C542.672 145.914 542.635 133.832 542.635 133.832Z" fill="black"/>
<path d="M522.192 175.439L507.264 179.706C507.013 178.951 506.774 178.302 506.587 177.641C505.921 175.725 504.841 173.978 503.424 172.526C502.007 171.074 500.288 169.951 498.389 169.238C496.49 168.525 494.458 168.239 492.436 168.4C490.414 168.561 488.453 169.166 486.69 170.171C485.275 170.889 484.113 172.023 483.36 173.42C482.608 174.818 482.3 176.413 482.479 177.99C482.631 179.519 483.261 180.962 484.28 182.112C485.299 183.261 486.654 184.06 488.154 184.394C492.377 185.42 496.154 186.175 500.341 187.075C504.389 187.85 508.296 189.236 511.929 191.183C515.113 192.985 517.798 195.552 519.741 198.653C521.684 201.754 522.824 205.29 523.057 208.943C523.291 212.595 522.611 216.248 521.079 219.572C519.548 222.895 517.212 225.784 514.284 227.977C509.765 231.583 504.427 233.416 498.477 234.036C490.034 234.896 482.447 233.339 475.536 229.259C472.359 227.381 469.641 224.818 467.58 221.755C465.519 218.692 464.167 215.207 463.624 211.555L479.176 207.224C479.504 210.081 480.656 212.781 482.491 214.995C488.218 221.979 499.887 221.127 504.244 215.984C505.461 214.521 506.047 212.635 505.873 210.739C505.7 208.844 504.782 207.095 503.32 205.877C502.915 205.526 502.47 205.223 501.995 204.973C498.918 203.68 495.723 202.689 492.454 202.016C488.774 201.124 485.158 200.455 481.612 199.311C477.731 198.31 474.213 196.231 471.464 193.313C468.715 190.396 466.847 186.76 466.076 182.825C465.455 179.983 465.445 177.041 466.047 174.195C466.65 171.349 467.851 168.664 469.57 166.318C474.624 158.292 483.914 154.41 493.723 154.443C500.208 154.41 506.048 155.895 511.341 159.135C514.042 160.801 516.382 162.992 518.222 165.577C520.063 168.163 521.367 171.092 522.058 174.19C522.127 174.603 522.171 175.021 522.192 175.439V175.439Z" fill="black"/>
<path d="M408.903 182.638L392.638 178.963C393.187 173.847 395.312 169.029 398.717 165.174C401.428 162.053 404.742 159.512 408.46 157.706C412.177 155.899 416.221 154.864 420.349 154.661C427.31 153.849 434.363 154.826 440.841 157.5C445.012 159.242 448.623 162.097 451.282 165.753C453.94 169.41 455.543 173.727 455.915 178.233C456.131 180.06 456.231 181.898 456.215 183.737L456.256 220.429C456.256 224.201 456.637 227.964 456.823 231.821H440.282C440.023 228.893 439.776 225.965 439.5 222.862C439.22 223.187 438.993 223.43 438.778 223.673C436.659 226.527 433.972 228.912 430.887 230.676C427.801 232.441 424.385 233.547 420.851 233.926C414.699 234.766 408.438 233.706 402.904 230.889C399.787 229.292 397.1 226.966 395.071 224.11C393.043 221.253 391.732 217.949 391.25 214.478C390.768 211.007 391.129 207.471 392.303 204.169C393.476 200.868 395.428 197.898 397.992 195.511C401.74 192.172 406.396 190.025 411.367 189.342C418.197 188.153 432.606 185.943 432.995 185.899C438.349 185.282 439.326 181.786 438.227 177.527C436.853 172.608 432.93 169.051 427.105 169.01C425.097 168.966 423.088 169.087 421.099 169.371C418.079 169.798 415.28 171.196 413.124 173.354C410.968 175.513 409.572 178.314 409.146 181.336C409.104 181.776 409.022 182.212 408.903 182.638V182.638ZM437.348 197.494C432.054 198.281 426.769 199.116 421.468 199.866C418.306 200.422 415.838 200.998 413.321 202.385C411.826 203.241 410.619 204.522 409.854 206.066C409.089 207.611 408.8 209.347 409.024 211.056C409.086 212.687 409.584 214.272 410.466 215.645C411.349 217.017 412.584 218.128 414.042 218.859C420.572 221.865 429.728 219.95 434.746 213.992C437.51 210.521 439.48 203.139 438.705 197.364C438.701 197.348 437.765 197.465 437.348 197.494Z" fill="black"/>
<path d="M387.292 144.628C384.454 144.628 381.889 144.559 379.323 144.628C373.434 144.628 369.847 148.967 369.798 154.22C369.746 155.363 369.758 156.681 369.758 156.681H387.024V172.3H369.685V231.81H351.685V172.369H338.654V156.71H351.669C351.669 152.431 352.005 148.809 353.375 144.749C354.765 140.526 357.331 136.788 360.772 133.974C364.213 131.161 368.385 129.389 372.798 128.867C377.382 128.409 381.715 128.312 385.978 129.557C386.542 129.727 387.271 129.962 387.271 129.962L387.292 144.628Z" fill="black"/>
<g clip-path="url(#clip0_3065_3800)">
<path d="M76.6814 128.142C75.9269 129.499 75.5315 131.024 75.5322 132.574V228.319C75.532 229.87 75.9304 231.396 76.6895 232.75L167.71 180.43L76.6814 128.142Z" fill="#E54F35"/>
<path d="M167.71 180.438V75.5361C166.198 75.5791 164.72 75.9943 163.409 76.7447L80.113 124.637C78.6734 125.468 77.4874 126.673 76.6816 128.122L167.71 180.438Z" fill="#F4A300"/>
<path d="M257.338 125.669L170.911 75.9955C169.879 75.657 168.796 75.5015 167.71 75.5363V180.438L259.159 127.868C258.674 127.043 258.059 126.301 257.338 125.669V125.669Z" fill="#E96092"/>
<path d="M259.155 233.012C259.608 232.259 259.949 231.445 260.167 230.595V130.281C259.955 129.432 259.619 128.618 259.172 127.864L167.722 180.438L259.155 233.012Z" fill="#832081"/>
<path d="M167.71 180.45V285.336C168.85 285.374 169.986 285.197 171.06 284.816L257.249 235.264C258.012 234.619 258.663 233.852 259.175 232.996L167.71 180.45Z" fill="#63B6E6"/>
<path d="M167.71 180.45L76.6895 232.77C77.4938 234.215 78.677 235.415 80.1127 236.243L163.409 284.123C164.719 284.876 166.198 285.291 167.71 285.332V180.45Z" fill="#FFDB14"/>
</g>
<defs>
<clipPath id="clip0_3065_3800">
<rect width="184.635" height="209.812" fill="white" transform="translate(75.5322 75.5322)"/>
</clipPath>
</defs>
</svg>
